<svg width="1440" height="187" viewBox="0 0 1440 187" fill="none" xmlns="http://www.w3.org/2000/svg">
<path fill-rule="evenodd" clip-rule="evenodd" d="M1440 0H0V25.2517V40.0547V51.3742V128H2.15756C24.8393 76.4374 225.044 37.7308 540.609 87.5282C878.707 140.881 1172.49 100.066 1326.15 78.7189L1329.52 78.2508L1412 65.2385L1440 58.446V51.3742V40.0547V25.2517V0ZM1369.04 127.891L1368.87 128H1369.16L1369.04 127.891Z" fill="#2844C9"/>
<path fill-rule="evenodd" clip-rule="evenodd" d="M1440 40H0V69V86V99V187H2.15747C24.8388 127.783 225.044 83.3309 540.609 140.52C878.707 201.793 1172.49 154.919 1326.15 130.403L1329.51 129.867L1412 114.922L1440 107.121V99V86V69V40ZM1369.16 187L1369.04 186.874L1368.87 187H1369.16Z" fill="#2844C9" fill-opacity="0.5"/>
</svg>
