<svg width="1623" height="15" viewBox="0 0 1623 15" fill="none" xmlns="http://www.w3.org/2000/svg">
<path fill-rule="evenodd" clip-rule="evenodd" d="M4.8026e-07 13H131.492C127.934 9.05305 122.27 6.5 115.89 6.5C111.176 6.5 106.853 7.89401 103.481 10.2143C100.672 7.89401 97.0689 6.5 93.1404 6.5C90.8293 6.5 88.6309 6.98245 86.6404 7.85214C84.6499 6.98245 82.4515 6.5 80.1404 6.5C79.586 6.5 79.0381 6.52776 78.4981 6.58197C74.9254 2.54505 69.7051 0 63.8904 0C56.044 0 49.28 4.6343 46.1862 11.3151C43.2412 8.34177 39.1559 6.5 34.6404 6.5C34.086 6.5 33.5382 6.52776 32.9981 6.58197C29.4254 2.54505 24.2051 0 18.3904 0C9.89999 0 2.67694 5.42625 4.8026e-07 13Z" fill="white"/>
<path fill-rule="evenodd" clip-rule="evenodd" d="M126 13H257.492C253.934 9.05305 248.27 6.5 241.89 6.5C237.176 6.5 232.853 7.89401 229.481 10.2143C226.672 7.89401 223.069 6.5 219.14 6.5C216.829 6.5 214.631 6.98245 212.64 7.85214C210.65 6.98245 208.452 6.5 206.14 6.5C205.586 6.5 205.038 6.52776 204.498 6.58197C200.925 2.54505 195.705 0 189.89 0C182.044 0 175.28 4.6343 172.186 11.3151C169.241 8.34177 165.156 6.5 160.64 6.5C160.086 6.5 159.538 6.52776 158.998 6.58197C155.425 2.54505 150.205 0 144.39 0C135.9 0 128.677 5.42625 126 13Z" fill="white"/>
<path fill-rule="evenodd" clip-rule="evenodd" d="M252 13H383.492C379.934 9.05305 374.27 6.5 367.89 6.5C363.176 6.5 358.853 7.89401 355.481 10.2143C352.672 7.89401 349.069 6.5 345.14 6.5C342.829 6.5 340.631 6.98245 338.64 7.85214C336.65 6.98245 334.452 6.5 332.14 6.5C331.586 6.5 331.038 6.52776 330.498 6.58197C326.925 2.54505 321.705 0 315.89 0C308.044 0 301.28 4.6343 298.186 11.3151C295.241 8.34177 291.156 6.5 286.64 6.5C286.086 6.5 285.538 6.52776 284.998 6.58197C281.425 2.54505 276.205 0 270.39 0C261.9 0 254.677 5.42625 252 13Z" fill="white"/>
<path fill-rule="evenodd" clip-rule="evenodd" d="M378 13H509.492C505.934 9.05305 500.27 6.5 493.89 6.5C489.176 6.5 484.853 7.89401 481.481 10.2143C478.672 7.89401 475.069 6.5 471.14 6.5C468.829 6.5 466.631 6.98245 464.64 7.85214C462.65 6.98245 460.452 6.5 458.14 6.5C457.586 6.5 457.038 6.52776 456.498 6.58197C452.925 2.54505 447.705 0 441.89 0C434.044 0 427.28 4.6343 424.186 11.3151C421.241 8.34177 417.156 6.5 412.64 6.5C412.086 6.5 411.538 6.52776 410.998 6.58197C407.425 2.54505 402.205 0 396.39 0C387.9 0 380.677 5.42625 378 13Z" fill="white"/>
<path fill-rule="evenodd" clip-rule="evenodd" d="M504 13H635.492C631.934 9.05305 626.27 6.5 619.89 6.5C615.176 6.5 610.853 7.89401 607.481 10.2143C604.672 7.89401 601.069 6.5 597.14 6.5C594.829 6.5 592.631 6.98245 590.64 7.85214C588.65 6.98245 586.452 6.5 584.14 6.5C583.586 6.5 583.038 6.52776 582.498 6.58197C578.925 2.54505 573.705 0 567.89 0C560.044 0 553.28 4.6343 550.186 11.3151C547.241 8.34177 543.156 6.5 538.64 6.5C538.086 6.5 537.538 6.52776 536.998 6.58197C533.425 2.54505 528.205 0 522.39 0C513.9 0 506.677 5.42625 504 13Z" fill="white"/>
<path fill-rule="evenodd" clip-rule="evenodd" d="M630 13H761.492C757.934 9.05305 752.27 6.5 745.89 6.5C741.176 6.5 736.853 7.89401 733.481 10.2143C730.672 7.89401 727.069 6.5 723.14 6.5C720.829 6.5 718.631 6.98245 716.64 7.85214C714.65 6.98245 712.452 6.5 710.14 6.5C709.586 6.5 709.038 6.52776 708.498 6.58197C704.925 2.54505 699.705 0 693.89 0C686.044 0 679.28 4.6343 676.186 11.3151C673.241 8.34177 669.156 6.5 664.64 6.5C664.086 6.5 663.538 6.52776 662.998 6.58197C659.425 2.54505 654.205 0 648.39 0C639.9 0 632.677 5.42625 630 13Z" fill="white"/>
<path fill-rule="evenodd" clip-rule="evenodd" d="M756 13H887.492C883.934 9.05305 878.27 6.5 871.89 6.5C867.176 6.5 862.853 7.89401 859.481 10.2143C856.672 7.89401 853.069 6.5 849.14 6.5C846.829 6.5 844.631 6.98245 842.64 7.85214C840.65 6.98245 838.452 6.5 836.14 6.5C835.586 6.5 835.038 6.52776 834.498 6.58197C830.925 2.54505 825.705 0 819.89 0C812.044 0 805.28 4.6343 802.186 11.3151C799.241 8.34177 795.156 6.5 790.64 6.5C790.086 6.5 789.538 6.52776 788.998 6.58197C785.425 2.54505 780.205 0 774.39 0C765.9 0 758.677 5.42625 756 13Z" fill="white"/>
<path fill-rule="evenodd" clip-rule="evenodd" d="M882 13H1013.49C1009.93 9.05305 1004.27 6.5 997.89 6.5C993.176 6.5 988.853 7.89401 985.481 10.2143C982.672 7.89401 979.069 6.5 975.14 6.5C972.829 6.5 970.631 6.98245 968.64 7.85214C966.65 6.98245 964.452 6.5 962.14 6.5C961.586 6.5 961.038 6.52776 960.498 6.58197C956.925 2.54505 951.705 0 945.89 0C938.044 0 931.28 4.6343 928.186 11.3151C925.241 8.34177 921.156 6.5 916.64 6.5C916.086 6.5 915.538 6.52776 914.998 6.58197C911.425 2.54505 906.205 0 900.39 0C891.9 0 884.677 5.42625 882 13Z" fill="white"/>
<path fill-rule="evenodd" clip-rule="evenodd" d="M1008 13H1139.49C1135.93 9.05305 1130.27 6.5 1123.89 6.5C1119.18 6.5 1114.85 7.89401 1111.48 10.2143C1108.67 7.89401 1105.07 6.5 1101.14 6.5C1098.83 6.5 1096.63 6.98245 1094.64 7.85214C1092.65 6.98245 1090.45 6.5 1088.14 6.5C1087.59 6.5 1087.04 6.52776 1086.5 6.58197C1082.93 2.54505 1077.71 0 1071.89 0C1064.04 0 1057.28 4.63428 1054.19 11.315C1051.24 8.34175 1047.16 6.5 1042.64 6.5C1042.09 6.5 1041.54 6.52776 1041 6.58197C1037.43 2.54505 1032.21 0 1026.39 0C1017.9 0 1010.68 5.42625 1008 13Z" fill="white"/>
<path fill-rule="evenodd" clip-rule="evenodd" d="M1134 13H1265.49C1261.93 9.05305 1256.27 6.5 1249.89 6.5C1245.18 6.5 1240.85 7.89401 1237.48 10.2143C1234.67 7.89401 1231.07 6.5 1227.14 6.5C1224.83 6.5 1222.63 6.98245 1220.64 7.85214C1218.65 6.98245 1216.45 6.5 1214.14 6.5C1213.59 6.5 1213.04 6.52776 1212.5 6.58197C1208.93 2.54505 1203.71 0 1197.89 0C1190.04 0 1183.28 4.6343 1180.19 11.3151C1177.24 8.34177 1173.16 6.5 1168.64 6.5C1168.09 6.5 1167.54 6.52776 1167 6.58197C1163.43 2.54505 1158.21 0 1152.39 0C1143.9 0 1136.68 5.42625 1134 13Z" fill="white"/>
<path fill-rule="evenodd" clip-rule="evenodd" d="M1260 13H1391.49C1387.93 9.05305 1382.27 6.5 1375.89 6.5C1371.18 6.5 1366.85 7.89401 1363.48 10.2143C1360.67 7.89401 1357.07 6.5 1353.14 6.5C1350.83 6.5 1348.63 6.98245 1346.64 7.85214C1344.65 6.98245 1342.45 6.5 1340.14 6.5C1339.59 6.5 1339.04 6.52776 1338.5 6.58197C1334.93 2.54505 1329.71 0 1323.89 0C1316.04 0 1309.28 4.6343 1306.19 11.3151C1303.24 8.34177 1299.16 6.5 1294.64 6.5C1294.09 6.5 1293.54 6.52776 1293 6.58197C1289.43 2.54505 1284.21 0 1278.39 0C1269.9 0 1262.68 5.42625 1260 13Z" fill="white"/>
<path fill-rule="evenodd" clip-rule="evenodd" d="M1386 13H1517.49C1513.93 9.05305 1508.27 6.5 1501.89 6.5C1497.18 6.5 1492.85 7.89401 1489.48 10.2143C1486.67 7.89401 1483.07 6.5 1479.14 6.5C1476.83 6.5 1474.63 6.98245 1472.64 7.85214C1470.65 6.98245 1468.45 6.5 1466.14 6.5C1465.59 6.5 1465.04 6.52776 1464.5 6.58197C1460.93 2.54505 1455.71 0 1449.89 0C1442.04 0 1435.28 4.6343 1432.19 11.3151C1429.24 8.34177 1425.16 6.5 1420.64 6.5C1420.09 6.5 1419.54 6.52776 1419 6.58197C1415.43 2.54505 1410.21 0 1404.39 0C1395.9 0 1388.68 5.42625 1386 13Z" fill="white"/>
<path fill-rule="evenodd" clip-rule="evenodd" d="M1491 13H1622.49C1618.93 9.05305 1613.27 6.5 1606.89 6.5C1602.18 6.5 1597.85 7.89401 1594.48 10.2143C1591.67 7.89401 1588.07 6.5 1584.14 6.5C1581.83 6.5 1579.63 6.98245 1577.64 7.85214C1575.65 6.98245 1573.45 6.5 1571.14 6.5C1570.59 6.5 1570.04 6.52776 1569.5 6.58197C1565.93 2.54505 1560.71 0 1554.89 0C1547.04 0 1540.28 4.6343 1537.19 11.3151C1534.24 8.34177 1530.16 6.5 1525.64 6.5C1525.09 6.5 1524.54 6.52776 1524 6.58197C1520.43 2.54505 1515.21 0 1509.39 0C1500.9 0 1493.68 5.42625 1491 13Z" fill="white"/>
<path d="M0 13H1622V15H0V13Z" fill="#172774"/>
</svg>
