<svg xmlns="http://www.w3.org/2000/svg" width="256" height="256" viewBox="0 0 100 100"><rect width="100" height="100" rx="50" fill="#7d6ee7"></rect><path d="M48.83 60.75L43.61 60.75L43.61 77.58Q42.62 77.86 40.55 78.13Q38.48 78.39 36.32 78.39L36.32 78.39Q31.55 78.39 29.71 76.77Q27.86 75.16 27.86 70.92L27.86 70.92L27.86 28.27Q27.86 26.38 28.90 25.34Q29.93 24.30 31.73 23.67L31.73 23.67Q34.79 22.59 38.98 22.10Q43.16 21.60 46.58 21.60L46.58 21.60Q59.00 21.60 65.57 26.91Q72.14 32.23 72.14 41.31L72.14 41.31Q72.14 45.72 70.47 49.28Q68.81 52.83 65.80 55.40Q62.78 57.96 58.46 59.36Q54.14 60.75 48.83 60.75L48.83 60.75ZM43.52 48.42L47.84 48.42Q51.62 48.42 53.87 46.58Q56.12 44.73 56.12 41.31L56.12 41.31Q56.12 37.89 54.01 36.05Q51.89 34.20 47.84 34.20L47.84 34.20Q46.40 34.20 45.46 34.25Q44.51 34.30 43.52 34.48L43.52 34.48L43.52 48.42Z" fill="#fff"></path></svg>